<svg width="20" height="21" viewBox="0 0 20 21" fill="none" xmlns="http://www.w3.org/2000/svg">
<g id="Frame">
<path id="Vector" d="M2.91669 10.9294C2.91669 11.3877 3.29169 11.7627 3.75002 11.7627H14.1917L10.675 15.2794C10.3334 15.621 10.3334 16.171 10.675 16.5127C11.0167 16.8544 11.5667 16.8544 11.9084 16.5127L16.8334 11.596C17.0167 11.4127 17.1 11.171 17.0834 10.9377C17.0917 10.7044 17.0084 10.4627 16.8334 10.2794L11.9084 5.3627C11.5667 5.02103 11.0167 5.02103 10.675 5.3627C10.3334 5.70436 10.3334 6.25436 10.675 6.59603L14.1917 10.096H3.75002C3.29169 10.096 2.91669 10.471 2.91669 10.9294Z" fill="white"/>
</g>
</svg>
